# xmcd
#
# Track frame offsets: 
#        150
#        17369
#        36483
#        54839
#        72440
#        91720
#        113004
#        134647
#        149098
#        167954
#        183406
#        201036
#        221190
#        245569
#
# Disc length: 3640 seconds
#
# Revision: 1
# Processed by: cddbd v1.5.2PL0 Copyright (c) Steve Scherf et al.
# Submitted via: ExactAudioCopy v1.0b3
#
DISCID=d20e360e
DTITLE=Greatful Dead - Not Fade Away
DYEAR=1900
DGENRE=
TTITLE0=Bertha
TTITLE1=Don't Cry Baby
TTITLE2=Good Lovin' (Reprise)
TTITLE3=I Know You Rider
TTITLE4=It's Crazy
TTITLE5=Me And My Bobby McGee
TTITLE6=Morning Dew 
TTITLE7=Not Fade away
TTITLE8=Playing In The Band
TTITLE9=Sweet Magnolia
TTITLE10=There Is A Road
TTITLE11=El Paso
TTITLE12=I'm A King Bee
TTITLE13=Turn On Your Lovelight
EXTD=
EXTT0=
EXTT1=
EXTT2=
EXTT3=
EXTT4=
EXTT5=
EXTT6=
EXTT7=
EXTT8=
EXTT9=
EXTT10=
EXTT11=
EXTT12=
EXTT13=
PLAYORDER=
